<svg width="26" height="25" viewBox="0 0 26 25" fill="none" xmlns="http://www.w3.org/2000/svg">
<path d="M13 6.25L11.8828 7.33828L16.2422 11.7188H6.75V13.2812H16.2422L11.8828 17.6352L13 18.75L19.25 12.5L13 6.25Z" fill="white"/>
<path d="M13 23.4375C10.8368 23.4375 8.72212 22.796 6.92346 21.5942C5.12479 20.3924 3.72291 18.6842 2.89507 16.6856C2.06724 14.687 1.85064 12.4879 2.27267 10.3662C2.69469 8.24454 3.73639 6.29566 5.26602 4.76602C6.79566 3.23639 8.74454 2.19469 10.8662 1.77267C12.9879 1.35064 15.187 1.56724 17.1856 2.39507C19.1842 3.22291 20.8924 4.62479 22.0942 6.42346C23.296 8.22212 23.9375 10.3368 23.9375 12.5C23.9342 15.3998 22.7808 18.1799 20.7303 20.2303C18.6799 22.2808 15.8998 23.4342 13 23.4375ZM13 3.12501C11.1458 3.12501 9.33324 3.67484 7.79153 4.70498C6.24982 5.73512 5.04821 7.19929 4.33863 8.91235C3.62906 10.6254 3.44341 12.5104 3.80514 14.329C4.16688 16.1475 5.05976 17.818 6.37088 19.1291C7.682 20.4402 9.35246 21.3331 11.171 21.6949C12.9896 22.0566 14.8746 21.8709 16.5877 21.1614C18.3007 20.4518 19.7649 19.2502 20.795 17.7085C21.8252 16.1668 22.375 14.3542 22.375 12.5C22.3721 10.0145 21.3835 7.6316 19.6259 5.87408C17.8684 4.11655 15.4855 3.1279 13 3.12501Z" fill="white"/>
</svg>
